PathFileType	4	(X/Y/Z)	5_coords_data.trc
DataRate	CameraRate	NumFrames	NumMarkers	Units	OrigDataRate	OrigDataStartFrame	OrigNumFrames
30.0	30.0	5	21	m	30.0	1	67
Frame#	Time	THUMB_TIP	THUMB_IP	THUMB_MCP	THUMB_CMC	INDEX_TIP	INDEX_DIP	INDEX_PIP	INDEX_MCP	MIDDLE_TIP	MIDDLE_DIP	MIDDLE_PIP	MIDDLE_MCP	RING_TIP	RING_DIP	RING_PIP	RING_MCP	PINKY_TIP	PINKY_DIP	PINKY_PIP	PINKY_MCP	WRIST
X1	Y1	Z1	X2	Y2	Z2	X3	Y3	Z3	X4	Y4	Z4	X5	Y5	Z5	X6	Y6	Z6	X7	Y7	Z7	X8	Y8	Z8	X9	Y9	Z9	X10	Y10	Z10	X11	Y11	Z11	X12	Y12	Z12	X13	Y13	Z13	X14	Y14	Z14	X15	Y15	Z15	X16	Y16	Z16	X17	Y17	Z17	X18	Y18	Z18	X19	Y19	Z19	X20	Y20	Z20	X21	Y21	Z21
0	0.0	-0.023796499252319334	-0.145343994140625	1.02925	-0.026539800643920898	-0.12061599731445312	1.034760009765625	-0.04279159927368164	-0.10023699951171874	1.0500899658203124	-0.04493669891357422	-0.06550769805908203	1.05697998046875	-0.022963699340820314	-0.10968099975585938	0.9230230102539062	-0.03131010055541992	-0.10385600280761718	0.94514599609375	-0.03952109909057617	-0.09825930023193359	0.9658809814453125	-0.049092899322509764	-0.08459369659423828	0.9996329956054687	-0.020894699096679688	-0.07495089721679687	0.904552978515625	-0.025532400131225586	-0.07385399627685547	0.9293519897460938	-0.03324319839477539	-0.07129409790039062	0.9587080078125	-0.046272598266601565	-0.06325239944458008	0.9989249877929688	-0.02134160041809082	-0.04538909912109375	0.910083984375	-0.026954200744628905	-0.04502939987182617	0.9317520141601563	-0.03277579879760742	-0.044689399719238285	0.9540579833984375	-0.04845050048828125	-0.04569559860229492	1.0078800048828125	-0.021646299362182618	-0.010923800468444824	0.9359099731445313	-0.027211399078369142	-0.015994799613952636	0.9555989990234375	-0.03163610076904297	-0.021668899536132814	0.9732529907226563	-0.03821129989624023	-0.02880710029602051	0.9971220092773437	-0.061446399688720704	-0.03454669952392578	1.0663599853515624
1	0.03333333333333333	-0.023622800827026367	-0.1445050048828125	1.02906005859375	-0.0261609992980957	-0.11950399780273438	1.0348599853515625	-0.04229119873046875	-0.09977510070800781	1.0500799560546874	-0.044036399841308596	-0.06541619873046875	1.055989990234375	-0.023052799224853517	-0.1095449981689453	0.9240689697265625	-0.030425800323486327	-0.10386699676513672	0.9448579711914062	-0.03858309936523437	-0.09736540222167969	0.965864990234375	-0.04750299835205078	-0.0844531021118164	1.0001799926757813	-0.020953899383544923	-0.0744718017578125	0.9050159912109375	-0.02545199966430664	-0.07387169647216797	0.9299340209960938	-0.03402239990234375	-0.07124800109863282	0.9579110107421875	-0.046211200714111327	-0.06436650085449219	0.9934320068359375	-0.021464000701904296	-0.04563320159912109	0.9095830078125	-0.026442300796508788	-0.045091098785400394	0.933427001953125	-0.03440560150146484	-0.044704498291015624	0.9592940063476563	-0.042074699401855466	-0.045376399993896484	0.9944169921875	-0.022553600311279298	-0.01085550022125244	0.936468994140625	-0.026821500778198244	-0.016184200286865236	0.9561240234375	-0.031191200256347657	-0.02131480026245117	0.9732579956054688	-0.036240798950195316	-0.028681299209594727	0.997885009765625	-0.06060139846801758	-0.034854198455810545	1.0673599853515625
2	0.06666666666666667	-0.0235807991027832	-0.14452999877929687	1.0289300537109376	-0.026091699600219728	-0.11951999664306641	1.03475	-0.04230870056152344	-0.09976119995117187	1.04997998046875	-0.043983100891113285	-0.0655022964477539	1.0559100341796874	-0.02314940071105957	-0.10956700134277343	0.923906982421875	-0.030480600357055663	-0.1038740005493164	0.9447169799804688	-0.03861970138549805	-0.0974363021850586	0.9657420043945313	-0.04748329925537109	-0.08451509857177734	1.0001300048828126	-0.02087380027770996	-0.0744031982421875	0.9049229736328125	-0.025402399063110353	-0.07383599853515625	0.929802001953125	-0.03398730087280273	-0.07124079895019532	0.95777001953125	-0.04619969940185547	-0.06441349792480469	0.9933629760742188	-0.021229400634765624	-0.04567020034790039	0.9095059814453125	-0.0262588005065918	-0.04514730072021484	0.9333590087890625	-0.03428910064697266	-0.044746898651123045	0.9592150268554688	-0.042049598693847653	-0.045424400329589845	0.9943800048828125	-0.02236370086669922	-0.01085569953918457	0.9364190063476563	-0.026656700134277345	-0.01620120048522949	0.9560969848632812	-0.031083799362182616	-0.021331199645996092	0.973239013671875	-0.03612860107421875	-0.02873340034484863	0.9978489990234375	-0.060532901763916014	-0.03485290145874023	1.0673199462890626
3	0.1	-0.02329840087890625	-0.1444259948730469	1.028739990234375	-0.02581719970703125	-0.11946299743652344	1.03456005859375	-0.04215250015258789	-0.09985060119628907	1.0498699951171875	-0.04389939880371094	-0.06550279998779297	1.055780029296875	-0.022967899322509765	-0.10953500366210937	0.9238280029296875	-0.03034410095214844	-0.10386299896240235	0.9446090087890625	-0.03860369873046875	-0.09736720275878906	0.965656982421875	-0.047451099395751956	-0.08454139709472656	0.9999810180664063	-0.020437200546264647	-0.07435089874267578	0.904906005859375	-0.025091999053955077	-0.07378690338134766	0.9297210083007813	-0.03377629852294922	-0.07123699951171875	0.9577069702148437	-0.04618259811401367	-0.06444760131835937	0.9933270263671875	-0.020771400451660156	-0.045682300567626954	0.9094630126953125	-0.02592329978942871	-0.04515950012207031	0.9333109741210938	-0.03410630035400391	-0.04477059936523437	0.9591729736328125	-0.04202489852905274	-0.04546709823608398	0.994291015625	-0.022055599212646486	-0.010913700103759765	0.9363410034179688	-0.02645870018005371	-0.01624720001220703	0.955969970703125	-0.030916500091552734	-0.021382200241088868	0.97310302734375	-0.03608489990234375	-0.02879770088195801	0.9977329711914062	-0.06045130157470703	-0.03489279937744141	1.0670799560546875
4	0.13333333333333333	-0.02264579963684082	-0.14416400146484376	1.0284200439453124	-0.025427900314331054	-0.11918000030517578	1.0344000244140625	-0.04187879943847656	-0.09980079650878906	1.0498399658203126	-0.04375210189819336	-0.06554000091552735	1.0556700439453126	-0.022781000137329102	-0.1093949966430664	0.923718017578125	-0.030161399841308594	-0.1037770004272461	0.9444949951171875	-0.03835369873046875	-0.09732589721679688	0.9655479736328125	-0.04727980041503906	-0.08454419708251953	0.99989501953125	-0.020250699996948243	-0.07416419982910157	0.9048460083007812	-0.024920299530029298	-0.07366790008544923	0.9296409912109375	-0.033625	-0.07116400146484375	0.9575750122070312	-0.046070999145507815	-0.06444920349121094	0.993156005859375	-0.020601900100708007	-0.04566270065307617	0.9094000244140625	-0.02583209991455078	-0.04512099838256836	0.9332470092773437	-0.03403150177001953	-0.04475899887084961	0.9590880126953125	-0.04191809844970703	-0.04543669891357422	0.9942680053710937	-0.02201810073852539	-0.010908100128173828	0.9362470092773437	-0.026446399688720704	-0.016217699050903322	0.955927978515625	-0.030918100357055663	-0.02135260009765625	0.973052001953125	-0.03605759811401367	-0.028769399642944334	0.9976119995117188	-0.06037620162963867	-0.034862998962402345	1.06697998046875
